<?xml version="1.0" encoding="UTF-8" standalone="no"?>
<!DOCTYPE svg PUBLIC "-//W3C//DTD SVG 1.1//EN" "http://www.w3.org/Graphics/SVG/1.1/DTD/svg11.dtd">
<svg width="100%" height="100%" viewBox="0 0 40 40" version="1.1" xmlns="http://www.w3.org/2000/svg" xmlns:xlink="http://www.w3.org/1999/xlink" xml:space="preserve" xmlns:serif="http://www.serif.com/" style="fill-rule:evenodd;clip-rule:evenodd;">
    <g transform="matrix(0.3125,0,0,0.3125,0,0)">
        <rect x="12" y="12" width="104" height="104" style="fill:none;stroke:rgb(206,208,214);stroke-width:8px;"/>
    </g>
    <g transform="matrix(0.3125,0,0,0.3125,0,0)">
        <path d="M46,29C38,29 38,37 38,41C38,45 34,47 30,49C34,51 38,53 38,57C38,61 38,69 46,69" style="fill:none;fill-rule:nonzero;stroke:rgb(206,208,214);stroke-width:8px;stroke-linecap:round;stroke-linejoin:round;"/>
    </g>
    <g transform="matrix(0.3125,0,0,0.3125,0,0)">
        <path d="M81,29C89,29 89,37 89,41C89,45 93,47 97,49C93,51 89,53 89,57C89,61 89,69 81,69" style="fill:none;fill-rule:nonzero;stroke:rgb(206,208,214);stroke-width:8px;stroke-linecap:round;stroke-linejoin:round;"/>
    </g>
    <g transform="matrix(0.3125,0,0,0.3125,0,0)">
        <rect x="30" y="85" width="68" height="18" style="fill:none;stroke:rgb(206,208,214);stroke-width:8px;"/>
    </g>
    <g transform="matrix(0.3125,0,0,0.3125,0,0)">
        <rect x="34" y="89" width="36" height="10" style="fill:rgb(206,208,214);"/>
    </g>
</svg>
